<svg width="36" height="36" viewBox="0 0 36 36" fill="none" xmlns="http://www.w3.org/2000/svg">
<path d="M9.27 10.164C9.987 10.083 10.3785 9.696 10.6305 9.045C10.9485 8.2245 11.0985 7.3365 11.589 6.5835C12.105 5.7915 13.107 5.388 13.983 5.577C14.22 5.628 14.256 5.787 14.325 5.9535C14.373 6.249 14.253 6.396 13.8945 6.4815C13.71 6.492 13.5225 6.462 13.341 6.5115C12.798 6.615 12.429 6.936 12.2325 7.443C12.003 8.031 11.7975 8.6295 11.604 9.231C11.4165 9.8145 11.1015 10.3005 10.6215 10.6785C10.2075 10.947 9.7665 11.1315 9.261 11.1165C7.9455 11.1255 6.6315 11.0985 5.3175 11.1315C4.581 11.2335 4.074 11.6355 3.963 12.468C3.963 13.296 3.963 14.124 3.963 14.952C3.963 15.075 3.93 15.21 4.059 15.2985C4.4265 15.372 4.7985 15.339 5.1675 15.342C6.6705 15.3525 8.172 15.342 9.675 15.348C10.0635 15.423 10.1805 15.54 10.224 15.894C10.146 16.233 10.0155 16.3395 9.621 16.3875C7.9065 16.395 6.192 16.3755 4.4775 16.401C4.3335 16.4025 4.1835 16.377 4.0485 16.4535C3.9525 16.533 3.963 16.644 3.963 16.7505C3.963 20.526 3.9615 24.3015 3.963 28.077C3.963 28.1265 3.966 28.1745 3.975 28.2225C4.1445 29.0325 4.4745 29.349 5.322 29.511C5.4585 29.532 5.595 29.523 5.7315 29.523C13.9275 29.523 22.1235 29.523 30.3195 29.523C30.456 29.523 30.5925 29.529 30.7275 29.511C31.4685 29.3925 31.902 28.9635 32.022 28.221C32.043 28.1145 32.0355 28.0065 32.0355 27.8985C32.0355 24.21 32.0355 20.5215 32.0355 16.833C32.0355 16.701 32.073 16.5555 31.95 16.4505C31.8135 16.374 31.665 16.3995 31.521 16.3995C29.916 16.398 28.3125 16.3995 26.7075 16.3995C26.5815 16.3995 26.454 16.404 26.328 16.3905C25.9845 16.3545 25.818 16.197 25.7505 15.846C25.851 15.51 26.01 15.3705 26.343 15.345C26.5665 15.327 26.79 15.3375 27.015 15.3375C28.524 15.3375 30.033 15.3375 31.542 15.3375C31.677 15.3375 31.815 15.3525 31.944 15.297C32.013 15.246 32.0355 15.177 32.0355 15.0945C32.025 14.235 32.061 13.374 32.016 12.5145C31.887 11.652 31.569 11.316 30.7095 11.1405C30.1665 11.0895 29.6235 11.1315 29.082 11.118C28.1115 11.091 27.234 10.461 26.886 9.5505C26.646 8.9235 26.4285 8.2875 26.223 7.6485C26.022 7.0245 25.6365 6.6315 24.987 6.507C24.8415 6.477 24.6945 6.4905 24.549 6.4905C21.4905 6.4875 18.4305 6.4935 15.372 6.4875C14.9745 6.414 14.8605 6.267 14.928 5.919C14.9835 5.724 15.0765 5.5665 15.303 5.541C15.408 5.574 15.516 5.5575 15.6225 5.5575C18.615 5.5575 21.6075 5.5575 24.6 5.559C24.705 5.559 24.8145 5.535 24.9165 5.583C25.929 5.5275 26.7915 6.3135 27.0855 7.197C27.2985 7.839 27.5235 8.478 27.7545 9.114C27.9855 9.7545 28.4355 10.122 29.1285 10.1655C29.5725 10.2075 30.0165 10.1715 30.4605 10.185C30.5655 10.188 30.6735 10.1595 30.774 10.2105C31.8915 10.2105 32.8455 11.175 32.949 12.2505C33.0225 13.011 32.991 13.767 32.9925 14.5245C33.0015 18.9945 33.0015 23.466 32.9925 27.936C32.9925 28.656 32.7945 29.313 32.232 29.829C31.7955 30.231 31.287 30.423 30.711 30.474C30.606 30.441 30.498 30.4575 30.3915 30.4575C22.11 30.4575 13.827 30.4575 5.5455 30.4575C5.439 30.4575 5.331 30.441 5.226 30.474C4.7475 30.486 4.35 30.273 3.972 30.0105C3.4545 29.6535 3.1995 29.121 3 28.5525V12.0885C3.162 11.6835 3.3105 11.271 3.6255 10.9485C4.05 10.5165 4.53 10.203 5.1645 10.2105C5.6475 10.1805 6.129 10.1205 6.615 10.128C7.278 10.137 7.941 10.1325 8.604 10.128C8.8275 10.128 9.0495 10.1325 9.27 10.1625V10.164Z" fill="black"/>
<path d="M32.0565 15.4155C30.222 15.4185 28.386 15.4305 26.5515 15.417C26.1885 15.414 25.9305 15.5025 25.791 15.8475C25.674 16.0155 25.512 15.975 25.3515 15.945C25.1505 15.8235 25.0665 15.6045 24.9405 15.4245C23.997 14.0745 22.7805 13.0605 21.2595 12.4215C20.5845 12.138 19.8795 11.952 19.152 11.8605C19.0455 11.847 18.9435 11.8125 18.84 11.787C18.6525 11.739 18.4635 11.7645 18.2745 11.766C18.093 11.766 17.91 11.766 17.7285 11.766C17.5395 11.763 17.349 11.742 17.16 11.7855C16.3815 11.9175 15.6075 12.063 14.8695 12.3645C13.2915 13.011 12.024 14.037 11.052 15.4365C10.9365 15.603 10.851 15.7965 10.674 15.915C10.5 15.9855 10.326 16.023 10.158 15.9C10.146 15.6285 9.99901 15.4755 9.73801 15.423C9.59401 15.378 9.44701 15.402 9.30301 15.402C7.92751 15.399 6.55051 15.396 5.17501 15.405C4.95001 15.4065 4.84351 15.336 4.84801 15.1125C4.86451 14.157 4.77601 13.1985 4.91401 12.2475C4.98301 11.775 5.15251 11.343 5.58901 11.073C6.73051 11.0565 7.87201 11.0715 9.01351 11.0655C9.12001 11.0655 9.22801 11.0835 9.33301 11.046C9.80251 11.0385 10.2075 10.8435 10.602 10.617C10.737 10.5615 10.878 10.5225 11.022 10.497C11.724 10.368 12.186 9.9525 12.4515 9.3C12.7215 8.6415 12.903 7.953 13.1625 7.2915C13.2885 6.969 13.4445 6.672 13.737 6.468C13.788 6.438 13.851 6.4455 13.9035 6.4185C14.178 6.387 14.3055 6.222 14.325 5.9565C14.532 6.021 14.7345 6.027 14.9295 5.9205C14.928 6.1815 15.03 6.3615 15.3015 6.4155C15.405 6.459 15.513 6.438 15.6195 6.438C18.6705 6.438 21.723 6.438 24.774 6.4395C24.879 6.4395 24.9885 6.417 25.092 6.4635C25.7595 6.594 26.112 7.038 26.31 7.656C26.496 8.235 26.7075 8.805 26.9025 9.381C27.1995 10.2555 27.8205 10.7775 28.692 11.0235C28.7925 11.052 28.905 11.0385 29.0115 11.0445C29.4855 11.094 29.961 11.052 30.435 11.067C30.5505 11.07 30.6675 11.0505 30.783 11.0835C31.5195 11.1615 32.049 11.7195 32.0655 12.4365C32.124 13.0635 32.085 13.6935 32.0865 14.3205C32.0865 14.685 32.1315 15.054 32.058 15.417L32.0565 15.4155Z" fill="#FCB65F"/>
<path d="M5.694 9.7515C5.454 9.66 5.334 9.51 5.3385 9.228C5.355 8.3985 5.3475 7.5705 5.343 6.741C5.343 6.4935 5.442 6.3375 5.6865 6.282C6.0555 6.2295 6.426 6.261 6.795 6.261C7.6245 6.2625 8.454 6.2385 9.2835 6.2745C9.492 6.306 9.591 6.441 9.627 6.636C9.66 7.5555 9.663 8.475 9.6255 9.3945C9.5715 9.579 9.4485 9.6945 9.2685 9.756C8.9205 9.852 8.676 9.672 8.6595 9.279C8.6355 8.736 8.655 8.1915 8.6505 7.6485C8.6505 7.5225 8.664 7.395 8.607 7.2765C8.541 7.1805 8.4405 7.191 8.3445 7.1895C7.7625 7.1895 7.182 7.1895 6.6 7.1895C6.5025 7.1895 6.4035 7.182 6.3375 7.2765C6.258 7.6245 6.3165 7.977 6.3045 8.3265C6.294 8.649 6.3045 8.9715 6.3015 9.2925C6.231 9.705 6.0585 9.8355 5.6925 9.7515H5.694Z" fill="black"/>
<path d="M8.73603 7.1715C8.73903 7.848 8.74053 8.526 8.74503 9.2025C8.74653 9.594 8.87403 9.726 9.27003 9.7545C9.18303 9.8745 9.21603 10.011 9.21303 10.143C8.92803 10.224 8.63553 10.1745 8.34753 10.1775C8.00853 10.1805 7.66653 10.2075 7.32753 10.1595C7.25553 10.0815 7.24653 9.984 7.24653 9.8865C7.23903 9.072 7.24053 8.2575 7.24653 7.4445C7.24653 7.347 7.25403 7.2495 7.31853 7.1685C7.79103 7.116 8.26503 7.1145 8.73753 7.1685L8.73603 7.1715Z" fill="#E5E9EA"/>
<path d="M7.33806 7.176C7.33806 8.166 7.33806 9.156 7.33806 10.1445C6.82806 10.2075 6.31956 10.209 5.81106 10.143C5.80356 10.0035 5.84856 9.849 5.69556 9.7515C5.99856 9.774 6.18756 9.6465 6.23556 9.336C6.27756 8.727 6.24156 8.1165 6.25506 7.506C6.25806 7.3905 6.23256 7.2735 6.27756 7.161C6.63156 7.134 6.98706 7.104 7.33956 7.176H7.33806Z" fill="#D1D1D1"/>
<path d="M5.22599 30.4725C5.30849 30.393 5.41199 30.4275 5.50499 30.4275C13.8045 30.426 22.104 30.426 30.402 30.4275C30.5055 30.4275 30.618 30.39 30.711 30.4725C30.594 30.477 30.477 30.4845 30.36 30.4845C22.1175 30.4845 13.875 30.4845 5.63399 30.4845C5.49749 30.4845 5.36099 30.477 5.22449 30.4725H5.22599Z" fill="#171717"/>
<path d="M24.9179 5.5815C21.7964 5.5815 18.6749 5.583 15.5549 5.5815C15.4709 5.5815 15.3779 5.6085 15.3044 5.5365C15.4694 5.532 15.6344 5.5245 15.7994 5.5245C18.7304 5.5245 21.6614 5.5245 24.5924 5.5275C24.7004 5.5275 24.8249 5.472 24.9179 5.58V5.5815Z" fill="#171717"/>
<path d="M5.80955 10.143C6.31805 10.143 6.82805 10.143 7.33655 10.1445C7.96205 10.1445 8.58605 10.1445 9.21155 10.1445C9.23105 10.1505 9.25055 10.158 9.27005 10.164C9.21605 10.221 9.14705 10.2135 9.07955 10.2135C7.77455 10.2135 6.46955 10.2135 5.16455 10.212C5.37005 10.0995 5.59655 10.1925 5.80955 10.143Z" fill="#2A2A2A"/>
<path d="M9.28499 6.2745C8.08649 6.2775 6.88649 6.279 5.68799 6.282C5.72249 6.2145 5.78699 6.2295 5.84249 6.2295C6.93599 6.2295 8.02949 6.2295 9.12149 6.2295C9.17999 6.2295 9.23999 6.2265 9.28499 6.2745Z" fill="#484848"/>
<path d="M30.7755 10.2105C30.3 10.2105 29.8245 10.212 29.3505 10.2105C29.2755 10.2105 29.193 10.2285 29.13 10.164C29.6265 10.161 30.123 10.1565 30.621 10.155C30.6765 10.155 30.741 10.146 30.7755 10.209V10.2105Z" fill="#313131"/>
<path d="M25.3411 15.9015C25.4911 15.882 25.6486 15.9255 25.7911 15.8475C25.9066 16.2285 26.1706 16.32 26.5516 16.317C28.3861 16.3035 30.2206 16.317 32.0566 16.32C32.1091 16.389 32.0881 16.47 32.0881 16.5465C32.0881 20.4075 32.0881 24.27 32.0881 28.131C32.0881 28.1985 32.0971 28.2675 32.0701 28.3335C31.9021 29.0595 31.5001 29.4585 30.8386 29.5575C30.7531 29.592 30.6646 29.577 30.5776 29.577C22.3081 29.577 14.0386 29.577 5.76906 29.577C5.71056 29.577 5.65206 29.577 5.59356 29.5725C5.16606 29.325 5.00856 28.9095 4.92006 28.4625C4.86006 28.158 4.83756 27.846 4.83906 27.5325C4.84206 23.9925 4.84056 20.454 4.84056 16.914C4.84056 16.53 5.03056 16.338 5.41056 16.338C6.72756 16.338 8.04306 16.338 9.36006 16.338C9.46656 16.338 9.57456 16.356 9.67956 16.3185C9.94206 16.296 10.1131 16.167 10.1596 15.8985C10.3291 15.882 10.5046 15.9405 10.6681 15.8505C10.7551 15.9525 10.6726 16.0335 10.6291 16.113C10.2151 16.8795 9.92106 17.6895 9.73656 18.54C9.68106 18.7965 9.67506 19.0605 9.61506 19.317C9.56106 19.5255 9.58956 19.737 9.58956 19.947C9.58956 20.097 9.58956 20.2455 9.58956 20.3955C9.58656 20.6025 9.56406 20.811 9.60906 21.018C9.80406 22.689 10.4116 24.1935 11.4826 25.491C12.4636 26.6805 13.6756 27.558 15.1351 28.0905C15.7906 28.329 16.4671 28.461 17.1526 28.566C17.3581 28.614 17.5651 28.587 17.7721 28.587C17.9206 28.587 18.0691 28.587 18.2161 28.587C18.4066 28.59 18.5971 28.611 18.7846 28.566C20.0446 28.407 21.2416 28.0545 22.3351 27.3885C22.7851 27.114 23.1976 26.7885 23.6026 26.451C23.8681 26.2305 23.9626 25.9785 23.8351 25.653C23.9101 25.461 24.0496 25.3335 24.2341 25.248C24.5611 25.35 24.7561 25.1955 24.9376 24.9345C25.7551 23.7645 26.1946 22.461 26.3641 21.0555C26.3701 21.0075 26.3776 20.9595 26.3896 20.9115C26.4376 20.724 26.4136 20.5335 26.4121 20.3445C26.4121 20.2125 26.4121 20.082 26.4121 19.95C26.4136 19.74 26.4391 19.53 26.3881 19.323C26.2036 18.219 25.9351 17.142 25.3951 16.149C25.3546 16.0755 25.2946 16.0005 25.3441 15.906L25.3411 15.9015Z" fill="#53BCE9"/>
<path d="M9.67804 16.317C9.58504 16.3965 9.47254 16.362 9.36904 16.362C7.99354 16.365 6.61954 16.3695 5.24404 16.359C5.00404 16.3575 4.92904 16.422 4.93054 16.668C4.93804 20.3835 4.93054 24.099 4.93954 27.8145C4.93954 28.4595 5.09554 29.067 5.58454 29.5395C5.46454 29.6085 5.33854 29.577 5.21404 29.5575C4.54804 29.502 4.02604 29.004 3.93004 28.332C3.89554 28.2375 3.91204 28.1385 3.91204 28.0425C3.91204 24.2295 3.91204 20.4165 3.91204 16.605C3.91204 16.5105 3.88354 16.41 3.94354 16.32C5.85604 16.32 7.76854 16.32 9.67954 16.3185L9.67804 16.317Z" fill="#36A6CE"/>
<path d="M5.58296 11.1015C5.10146 11.565 4.95446 12.1605 4.93946 12.795C4.92146 13.5645 4.94396 14.334 4.93046 15.1035C4.92596 15.336 5.01746 15.375 5.22296 15.3735C6.61646 15.366 8.00846 15.369 9.40196 15.372C9.51446 15.372 9.63746 15.333 9.73946 15.42C7.80746 15.42 5.87546 15.417 3.94346 15.4155C3.88046 15.3165 3.91496 15.2055 3.91196 15.102C3.89846 14.1945 3.93296 13.2885 3.89246 12.381C3.94796 11.721 4.53296 11.1495 5.21846 11.085C5.34146 11.064 5.46596 11.0325 5.58446 11.103L5.58296 11.1015Z" fill="#E29A4B"/>
<path d="M13.782 6.4665C13.3665 6.843 13.2045 7.356 13.029 7.8615C12.8475 8.385 12.693 8.9175 12.4755 9.429C12.1605 10.1655 11.418 10.638 10.6005 10.614C11.1015 10.2075 11.394 9.675 11.5815 9.0645C11.7495 8.517 11.946 7.9785 12.1455 7.4415C12.3465 6.9015 12.7215 6.552 13.305 6.453C13.4655 6.426 13.6245 6.408 13.7835 6.465L13.782 6.4665Z" fill="#E29A4B"/>
<path d="M5.21256 29.5575C5.33556 29.5515 5.46006 29.5455 5.58306 29.5395C5.70006 29.5425 5.81706 29.5485 5.93406 29.5485C14.1976 29.5485 22.4596 29.5455 30.7231 29.5455C30.7621 29.5455 30.7996 29.553 30.8386 29.5575C30.7411 29.619 30.6316 29.607 30.5251 29.607C22.1911 29.607 13.8586 29.6055 5.52456 29.6025C5.41956 29.6025 5.30856 29.622 5.21106 29.559L5.21256 29.5575Z" fill="#3981A0"/>
<path d="M3.94199 16.3185C3.94199 20.235 3.93899 24.153 3.93749 28.0695C3.93749 28.1565 3.93149 28.2435 3.92849 28.332C3.85949 28.215 3.88049 28.086 3.88049 27.96C3.88049 24.1665 3.88049 20.3715 3.88199 16.578C3.88199 16.4925 3.82349 16.3815 3.94199 16.3185Z" fill="#2A82A1"/>
<path d="M32.07 28.332C32.067 28.254 32.0595 28.1775 32.0595 28.0995C32.058 24.1725 32.0565 20.2455 32.0565 16.3185C32.1765 16.38 32.1165 16.491 32.1165 16.5765C32.1195 20.3715 32.1195 24.165 32.118 27.96C32.118 28.0845 32.1375 28.215 32.07 28.332Z" fill="#4193B6"/>
<path d="M25.092 6.4605C22.722 6.4605 20.3505 6.4635 17.9805 6.4635C17.19 6.4635 16.3995 6.4635 15.609 6.4635C15.5055 6.4635 15.393 6.4965 15.3015 6.414C18.471 6.4125 21.6405 6.4095 24.81 6.4095C24.906 6.4095 25.0065 6.4005 25.092 6.462V6.4605Z" fill="#AD7D41"/>
<path d="M5.58304 11.1015C5.46154 11.0955 5.33854 11.0895 5.21704 11.0835C5.28154 11.0685 5.34754 11.04 5.41204 11.04C6.71854 11.04 8.02504 11.0415 9.33154 11.0445C9.22804 11.124 9.10654 11.091 8.99254 11.091C7.85554 11.097 6.71854 11.1 5.58154 11.103L5.58304 11.1015Z" fill="#9D713B"/>
<path d="M3.89098 12.3795C3.97498 12.471 3.93448 12.5835 3.93598 12.6855C3.94048 13.596 3.94048 14.505 3.94198 15.4155C3.86098 15.3945 3.88048 15.327 3.88048 15.2745C3.88348 14.31 3.88798 13.3455 3.89098 12.381V12.3795Z" fill="#B0783B"/>
<path d="M32.0565 15.4155C32.0595 14.4225 32.061 13.428 32.064 12.435C32.136 12.48 32.118 12.5535 32.118 12.6195C32.118 13.4955 32.1195 14.3715 32.118 15.2475C32.118 15.306 32.157 15.3885 32.058 15.4155H32.0565Z" fill="#C48E4A"/>
<path d="M30.7815 11.0805C30.1905 11.0775 29.5995 11.1465 29.0115 11.0415C29.601 11.052 30.1935 10.9785 30.7815 11.0805Z" fill="#9E723B"/>
<path d="M13.782 6.4665C13.623 6.462 13.4625 6.459 13.3035 6.4545C13.4985 6.3645 13.701 6.408 13.902 6.414C13.8615 6.432 13.8225 6.4485 13.782 6.4665Z" fill="#8F6230"/>
<path d="M23.8605 25.641C24.0495 25.935 24.0375 26.1495 23.805 26.364C22.3965 27.669 20.736 28.4205 18.8265 28.62C18.63 28.671 18.426 28.602 18.2295 28.659C18.0765 28.659 17.9235 28.659 17.7705 28.659C17.556 28.5975 17.3325 28.677 17.118 28.6155C13.1655 28.227 9.94503 24.9975 9.55803 21.0555C9.49653 20.841 9.57603 20.616 9.51453 20.4015C9.51453 20.2485 9.51453 20.0955 9.51453 19.9425C9.57603 19.728 9.49653 19.5045 9.55803 19.2885C9.66303 18.1155 10.0365 17.0295 10.608 16.0065C10.635 15.957 10.6485 15.9 10.668 15.846C11.0565 15.315 11.418 14.763 11.886 14.292C13.245 12.921 14.853 12.0435 16.782 11.79C16.896 11.775 17.007 11.748 17.1195 11.727C17.316 11.6685 17.52 11.7435 17.7165 11.685C17.907 11.685 18.0975 11.685 18.2895 11.685C18.4845 11.742 18.69 11.6685 18.8865 11.727C19.4325 11.8095 19.9785 11.901 20.5065 12.063C21.3525 12.3225 22.143 12.708 22.8705 13.2195C23.8875 13.9365 24.7035 14.8395 25.347 15.9C25.947 16.9545 26.2965 18.0885 26.448 19.2885C26.5095 19.503 26.43 19.728 26.4915 19.9425C26.4915 20.0775 26.4915 20.211 26.4915 20.346C26.4345 20.5425 26.5065 20.748 26.451 20.9445C26.3055 22.47 25.806 23.8665 24.9105 25.1145C24.7155 25.3875 24.5295 25.4265 24.2205 25.2765C23.946 25.0875 23.904 24.8925 24.1035 24.5865C24.294 24.2925 24.4905 24.0015 24.657 23.6925C25.1475 22.7865 25.3695 21.801 25.512 20.793C25.5615 20.4795 25.5555 20.166 25.515 19.851C25.455 19.269 25.386 18.6915 25.2285 18.123C24.957 17.139 24.501 16.254 23.865 15.4605C23.1705 14.595 22.323 13.917 21.33 13.425C20.4465 12.987 19.506 12.7485 18.522 12.687C18.444 12.6825 18.366 12.681 18.2895 12.6645C18.081 12.615 17.874 12.6165 17.6655 12.6645C16.9095 12.693 16.182 12.8505 15.4665 13.095C14.709 13.353 14.0295 13.746 13.401 14.2305C12.3195 15.066 11.5275 16.1235 11.0115 17.3865C10.689 18.177 10.5105 19.0035 10.467 19.857C10.467 20.064 10.467 20.2695 10.467 20.4765C10.4895 21.1335 10.6185 21.7725 10.812 22.3995C11.1615 23.529 11.754 24.5235 12.5715 25.3695C13.488 26.3175 14.574 27.006 15.8535 27.3795C16.437 27.5505 17.0265 27.666 17.6325 27.7065C17.9025 27.696 18.174 27.7335 18.4425 27.678C19.506 27.6075 20.517 27.3465 21.465 26.85C22.074 26.532 22.623 26.13 23.1375 25.6785C23.274 25.5585 23.427 25.4775 23.613 25.4895C23.7195 25.497 23.8335 25.5 23.8665 25.6365L23.8605 25.641Z" fill="black"/>
<path d="M20.6295 10.569C20.055 10.437 19.665 10.005 19.6275 9.4575C19.6005 9.063 19.5975 8.67 19.6275 8.2755C19.719 7.647 20.1405 7.2255 20.7435 7.1565C21.774 7.116 22.806 7.1475 23.8365 7.1415C24.078 7.14 24.3225 7.1145 24.564 7.1595C25.215 7.2675 25.623 7.683 25.668 8.5065C25.689 8.901 25.68 9.297 25.611 9.6885C25.5405 10.092 25.116 10.4715 24.6285 10.5735C24.2205 10.62 23.811 10.59 23.403 10.593C22.5735 10.599 21.7455 10.596 20.916 10.593C20.82 10.593 20.721 10.614 20.628 10.569H20.6295Z" fill="black"/>
<path d="M20.6296 10.569C21.9631 10.569 23.2966 10.572 24.6316 10.5735C24.5356 10.6335 24.4261 10.623 24.3196 10.623C23.2021 10.623 22.0861 10.6245 20.9686 10.623C20.8531 10.623 20.7346 10.635 20.6281 10.569H20.6296Z" fill="#3A2A16"/>
<path d="M24.567 7.158C23.2935 7.158 22.02 7.1565 20.7465 7.155C20.8125 7.0995 20.892 7.107 20.9685 7.107C22.0845 7.107 23.2005 7.107 24.315 7.107C24.402 7.107 24.4905 7.0995 24.567 7.1565V7.158Z" fill="#78562D"/>
<path d="M19.629 8.2755C19.629 8.67 19.629 9.063 19.629 9.4575C19.5495 9.063 19.548 8.67 19.629 8.2755Z" fill="#8B6434"/>
<path d="M18.882 11.7285C18.681 11.739 18.48 11.76 18.285 11.6865C18.486 11.6715 18.687 11.6445 18.882 11.7285Z" fill="#8E6635"/>
<path d="M17.7135 11.688C17.5185 11.7615 17.3175 11.7405 17.1165 11.73C17.31 11.646 17.5125 11.673 17.7135 11.688Z" fill="#8E6635"/>
<path d="M7.33797 7.176C6.98847 7.176 6.63897 7.176 6.28947 7.176C6.26997 7.197 6.25197 7.1955 6.23547 7.17C6.26547 7.101 6.32697 7.11 6.38397 7.11C7.12047 7.1085 7.85847 7.107 8.59497 7.1085C8.64897 7.1085 8.71497 7.0935 8.73597 7.173L7.33797 7.1775V7.176Z" fill="#747676"/>
<path d="M6.23551 7.17C6.25351 7.17 6.27151 7.1715 6.28951 7.176C6.28651 7.794 6.28501 8.412 6.27901 9.03C6.27901 9.132 6.31501 9.2445 6.23401 9.336C6.23401 8.6145 6.23401 7.893 6.23551 7.1715V7.17Z" fill="#9D9D9D"/>
<path d="M10.3935 19.818C10.4085 19.2045 10.5105 18.6015 10.6965 18.021C11.139 16.644 11.8725 15.4455 12.972 14.487C14.0175 13.575 15.207 12.969 16.584 12.72C16.938 12.6555 17.286 12.612 17.643 12.6105C17.8605 12.5715 18.0795 12.5715 18.297 12.6105C22.209 12.7005 25.431 15.912 25.563 19.8165C25.6005 20.1525 25.5975 20.4885 25.566 20.8245C25.4325 22.1025 25.0635 23.298 24.333 24.3675C24.2835 24.4395 24.243 24.519 24.186 24.5865C23.979 24.828 24.003 25.056 24.213 25.278C24.096 25.3995 23.9775 25.521 23.8605 25.641C23.592 25.4745 23.3685 25.554 23.1525 25.752C22.335 26.505 21.4005 27.066 20.337 27.4005C19.7295 27.591 19.116 27.753 18.471 27.735C18.177 27.801 17.877 27.72 17.583 27.7785C16.92 27.7545 16.278 27.612 15.6525 27.4005C13.563 26.6925 12.048 25.3335 11.0985 23.3475C10.746 22.6095 10.515 21.8325 10.4385 21.012C10.4235 20.8515 10.3545 20.6955 10.3935 20.529C10.4235 20.292 10.425 20.055 10.3935 19.818Z" fill="#E5E9EA"/>
<path d="M8.67752 28.7955C7.73552 28.7055 6.75002 27.7485 6.93902 26.4465C7.05002 25.683 7.73852 24.6675 9.10502 24.7425C10.083 24.7965 10.986 25.521 11.0175 26.733C11.043 27.7335 10.4055 28.614 9.27302 28.7955C9.07352 28.8255 8.87552 28.827 8.67602 28.7955H8.67752Z" fill="black"/>
<path d="M9.51153 20.403C9.58803 20.616 9.56703 20.8365 9.55503 21.057C9.47403 20.844 9.49653 20.6235 9.51153 20.403Z" fill="#2A6077"/>
<path d="M9.55503 19.29C9.56703 19.509 9.58803 19.7295 9.51153 19.944C9.49653 19.725 9.47553 19.5045 9.55503 19.29Z" fill="#2B6178"/>
<path d="M26.4856 19.944C26.4091 19.731 26.4301 19.5105 26.4421 19.29C26.5216 19.503 26.5006 19.7235 26.4856 19.944Z" fill="#2B6178"/>
<path d="M17.1165 28.617C17.3355 28.6065 17.556 28.584 17.769 28.6605C17.55 28.674 17.3295 28.6965 17.1165 28.617Z" fill="#2A6077"/>
<path d="M18.2295 28.6605C18.4245 28.581 18.6255 28.6065 18.8265 28.6215C18.6315 28.698 18.4305 28.6725 18.2295 28.6605Z" fill="#255569"/>
<path d="M8.67749 28.7955C8.87699 28.7955 9.07499 28.7955 9.27449 28.7955C9.07499 28.878 8.87699 28.8765 8.67749 28.7955Z" fill="#2A6077"/>
<path d="M26.445 20.946C26.439 20.745 26.3955 20.5425 26.4855 20.3475C26.493 20.5485 26.526 20.751 26.445 20.946Z" fill="#183744"/>
<path d="M25.566 20.8245L25.563 19.8165C25.6725 20.1525 25.6275 20.4885 25.566 20.8245Z" fill="#7E8081"/>
<path d="M17.5845 27.7785C17.877 27.678 18.177 27.7545 18.4725 27.735C18.1815 27.84 17.8815 27.7785 17.5845 27.7785Z" fill="#919494"/>
<path d="M10.3936 19.818C10.4701 20.055 10.4701 20.292 10.3936 20.529C10.3936 20.292 10.3936 20.055 10.3936 19.818Z" fill="#959798"/>
<path d="M18.2969 12.6105C18.0794 12.6105 17.8604 12.6105 17.6429 12.6105C17.8604 12.5265 18.0794 12.519 18.2969 12.6105Z" fill="#959798"/>
<path d="M24.7424 9.4575C24.7094 9.5805 24.6269 9.6555 24.5069 9.69C24.2369 9.741 23.9639 9.7125 23.6924 9.711C22.7294 9.705 21.7664 9.738 20.8034 9.6945C20.6354 9.663 20.5499 9.5505 20.5109 9.3945C20.4734 9.0615 20.4824 8.727 20.5064 8.394C20.5379 8.1855 20.6534 8.0595 20.8664 8.0325C22.0604 8.01 23.2529 7.9995 24.4469 8.037C24.5894 8.061 24.6914 8.136 24.7394 8.277C24.7844 8.67 24.7784 9.0645 24.7424 9.4575Z" fill="#E5E9EA"/>
<path d="M20.8035 9.696C22.038 9.6945 23.2725 9.693 24.5055 9.6915C24.432 9.7545 24.342 9.7455 24.255 9.7455C23.178 9.7455 22.0995 9.7455 21.0225 9.7455C20.946 9.7455 20.865 9.7605 20.802 9.6975L20.8035 9.696Z" fill="#7F8282"/>
<path d="M24.4455 8.037C23.2515 8.0355 22.059 8.034 20.865 8.0325C20.9175 7.974 20.9895 7.9875 21.0555 7.9875C22.113 7.9875 23.169 7.9875 24.2265 7.9875C24.303 7.9875 24.384 7.9725 24.4455 8.0385V8.037Z" fill="#474848"/>
<path d="M24.7425 9.4575C24.7425 9.0645 24.741 8.67 24.7395 8.277C24.8355 8.67 24.831 9.0645 24.7425 9.4575Z" fill="#9B9E9F"/>
<path d="M20.5065 8.394C20.508 8.727 20.5095 9.0615 20.511 9.3945C20.424 9.0615 20.4345 8.727 20.5065 8.394Z" fill="#3F4040"/>
<path d="M18.297 14.076C21.4335 14.172 24.0135 16.7775 24.0975 19.8765C24.1365 20.0745 24.1365 20.274 24.0975 20.472C24.03 23.097 22.1415 25.4265 19.5765 26.0985C19.194 26.199 18.813 26.286 18.414 26.2725C18.1395 26.3355 17.8575 26.2575 17.583 26.316C17.1225 26.304 16.674 26.2005 16.2435 26.0625C14.7075 25.5675 13.503 24.636 12.6855 23.232C12.2715 22.521 11.9985 21.7575 11.907 20.9355C11.892 20.8005 11.787 20.6685 11.901 20.5305C11.8635 20.2935 11.8635 20.055 11.901 19.818C11.7525 19.632 11.8875 19.437 11.919 19.269C12.2535 17.4435 13.164 15.9825 14.7495 14.9835C15.63 14.4285 16.587 14.085 17.6445 14.076C17.862 14.0385 18.081 14.0385 18.2985 14.076H18.297Z" fill="black"/>
<path d="M17.583 26.316C17.856 26.2185 18.1365 26.2935 18.414 26.2725C18.1425 26.388 17.8605 26.3085 17.583 26.316Z" fill="#636565"/>
<path d="M11.901 19.8165C11.901 20.0535 11.901 20.292 11.901 20.529C11.8125 20.292 11.8125 20.0535 11.901 19.8165Z" fill="#636565"/>
<path d="M18.2969 14.076C18.0794 14.076 17.8604 14.076 17.6429 14.076C17.8604 13.9935 18.0794 13.9845 18.2969 14.076Z" fill="#57595A"/>
<path d="M24.0975 20.472C24.0975 20.274 24.0975 20.0745 24.0975 19.8765C24.183 20.0745 24.183 20.274 24.0975 20.472Z" fill="#57595A"/>
<path d="M8.97604 27.9195C8.31904 27.9195 7.80154 27.4005 7.81054 26.7555C7.81954 26.124 8.34154 25.6185 8.98054 25.62C9.63004 25.62 10.1475 26.142 10.1445 26.79C10.14 27.417 9.61954 27.921 8.97604 27.9195Z" fill="#566368"/>
<path d="M23.2111 20.4645C23.1901 21.6225 22.7641 22.6335 22.0351 23.508C21.0946 24.636 19.8826 25.2765 18.4066 25.389C18.3676 25.392 18.3286 25.386 18.2896 25.3845C18.1816 25.2555 18.1846 25.0905 18.1696 24.9405C18.0901 24.1185 17.8216 23.3625 17.4031 22.656C17.3446 22.5585 17.2606 22.4655 17.2876 22.335C17.3896 22.266 17.4946 22.3095 17.5981 22.3275C19.1281 22.593 20.4241 21.3015 20.1556 19.779C20.1376 19.6755 20.0956 19.5705 20.1556 19.467C20.2861 19.4265 20.3776 19.515 20.4736 19.572C21.1846 19.992 21.9436 20.2635 22.7686 20.3445C22.9171 20.3595 23.0821 20.355 23.2096 20.4645H23.2111Z" fill="#566368"/>
<path d="M12.786 19.8825C12.807 18.7245 13.233 17.7135 13.962 16.839C14.901 15.7095 16.1145 15.072 17.5905 14.9565C17.6295 14.9535 17.6685 14.9595 17.7075 14.961C17.8155 15.09 17.8125 15.255 17.8275 15.405C17.907 16.227 18.1755 16.983 18.594 17.6895C18.6525 17.787 18.7365 17.88 18.7095 18.0105C18.6075 18.0795 18.5025 18.036 18.399 18.018C16.869 17.7525 15.573 19.044 15.8415 20.5665C15.8595 20.67 15.9015 20.775 15.8415 20.8785C15.711 20.919 15.6195 20.8305 15.5235 20.7735C14.8125 20.3535 14.0535 20.082 13.2285 20.001C13.08 19.986 12.915 19.9905 12.7875 19.881L12.786 19.8825Z" fill="#566368"/>
<path d="M18.7035 18C18.072 17.085 17.7585 16.0665 17.7075 14.961L17.703 14.9505C17.9205 14.916 18.1365 14.9205 18.354 14.949C20.931 15.0885 23.085 17.244 23.2245 19.8195C23.253 20.037 23.256 20.253 23.223 20.4705L23.2125 20.466C22.107 20.415 21.0885 20.1015 20.1735 19.47C20.0955 19.455 20.067 19.392 20.0385 19.329C19.7925 18.7785 19.395 18.381 18.846 18.1365C18.783 18.108 18.72 18.0795 18.705 18.0015L18.7035 18Z" fill="#6F7B7F"/>
<path d="M12.7861 19.8825C13.8916 19.9335 14.9101 20.247 15.8236 20.8785C15.9001 20.8935 15.9301 20.955 15.9586 21.0165C16.2046 21.5685 16.6036 21.9675 17.1556 22.2135C17.2171 22.2405 17.2786 22.2705 17.2936 22.3485C17.9251 23.2635 18.2386 24.282 18.2896 25.386L18.2941 25.3965C18.0766 25.431 17.8606 25.4265 17.6431 25.398C15.0676 25.26 12.9106 23.103 12.7726 20.5275C12.7441 20.31 12.7411 20.094 12.7741 19.8765L12.7846 19.881L12.7861 19.8825Z" fill="#6F7B7F"/>
<path d="M23.2216 20.469C23.2216 20.2515 23.2216 20.0355 23.2231 19.818C23.2981 20.0355 23.3071 20.2515 23.2216 20.469Z" fill="#2D3233"/>
<path d="M12.777 19.878C12.777 20.0955 12.777 20.3115 12.7755 20.529C12.7005 20.3115 12.6915 20.0955 12.777 19.878Z" fill="#2D3233"/>
<path d="M18.354 14.949C18.1365 14.949 17.9205 14.949 17.703 14.9505C17.919 14.865 18.1365 14.8725 18.354 14.949Z" fill="#2D3233"/>
<path d="M17.6445 25.398C17.862 25.398 18.078 25.398 18.2955 25.3965C18.0795 25.482 17.862 25.4745 17.6445 25.398Z" fill="#2D3233"/>
<path d="M17.2935 22.3485C16.578 22.0845 16.089 21.594 15.8235 20.8785C15.453 19.581 16.1475 18.5505 16.977 18.141C17.5335 17.8665 18.1095 17.829 18.7035 18C19.419 18.264 19.908 18.7545 20.1735 19.47C20.5455 20.766 19.845 21.8025 19.02 22.209C18.4635 22.4835 17.8875 22.521 17.2935 22.3485Z" fill="black"/>
<path d="M19.398 20.1615C19.41 20.9025 18.753 21.5685 18.003 21.573C17.2575 21.5775 16.596 20.9175 16.599 20.1705C16.602 19.431 17.232 18.7935 17.979 18.774C18.717 18.7545 19.386 19.4085 19.398 20.1615Z" fill="#435054"/>
</svg>
