<svg width="30" height="30" viewBox="0 0 30 30" fill="none" xmlns="http://www.w3.org/2000/svg">
<path d="M13.75 26.25L9.78125 22.6875C8.28125 21.3333 6.99459 20.125 5.92125 19.0625C4.84792 18 3.9625 17 3.265 16.0625C2.5675 15.125 2.05709 14.2188 1.73375 13.3438C1.41042 12.4688 1.24917 11.5521 1.25 10.5938C1.25 8.63542 1.90625 7.005 3.21875 5.7025C4.53125 4.4 6.16667 3.74917 8.125 3.75C9.20834 3.75 10.2396 3.97375 11.2188 4.42125C12.1979 4.86875 13.0417 5.50959 13.75 6.34375C14.4583 5.51042 15.3021 4.86959 16.2813 4.42125C17.2604 3.97292 18.2917 3.74917 19.375 3.75C21.1458 3.75 22.6304 4.28667 23.8288 5.36C25.0271 6.43334 25.7717 7.68834 26.0625 9.125C25.6458 8.95834 25.2083 8.85417 24.75 8.8125C24.2917 8.77084 23.8229 8.75 23.3438 8.75C21.5729 8.75 19.9479 9.46375 18.4688 10.8913C16.9896 12.3188 16.25 14.105 16.25 16.25C16.25 17.25 16.4688 18.2658 16.9063 19.2975C17.3438 20.3292 17.9583 21.1675 18.75 21.8125C18.3542 22.1667 17.8383 22.62 17.2025 23.1725C16.5667 23.725 16.02 24.2092 15.5625 24.625L13.75 26.25ZM22.4375 20.2188L18.875 16.6875L20.6563 14.9375L22.4375 16.6875L26.8438 12.2813L28.625 14.0313L22.4375 20.2188Z" fill="#79A33D"/>
</svg>
