<svg width="36" height="36" viewBox="0 0 36 36" fill="none" xmlns="http://www.w3.org/2000/svg">
<path d="M10.515 30.1245C9.23395 29.9685 8.31745 29.076 8.17945 27.8085C8.16595 27.687 8.12995 27.678 8.02795 27.6645C7.35445 27.579 6.75745 27.3225 6.26995 26.8365C5.85145 26.4195 5.59495 25.917 5.48845 25.344C5.45995 25.1955 5.41195 25.1535 5.27545 25.1355C4.22845 24.996 3.21295 24.0465 3.02095 23.0295C3.00145 22.9245 3.01045 22.815 3.01045 22.707C3.01045 18.405 3.02245 14.1015 2.99995 9.7995C2.99395 8.802 3.35095 7.9785 3.94495 7.224C4.46245 6.5655 5.14795 6.1245 5.92495 5.862C6.35245 5.718 6.81595 5.655 7.28545 5.6565C13.143 5.6655 19.0005 5.655 24.858 5.6685C26.13 5.6715 27.141 6.2355 27.5685 7.497C27.735 7.989 27.9315 8.184 28.4265 8.3295C29.3955 8.6145 29.9595 9.357 30.177 10.3365C30.225 10.554 30.3075 10.581 30.495 10.5945C31.4835 10.6635 32.274 11.067 32.7315 11.988C32.931 12.3885 32.991 12.8325 32.991 13.2675C33 18 33.003 22.734 32.991 27.4665C32.988 28.4895 32.586 29.3235 31.6395 29.8185C31.335 29.9775 31.0035 30.069 30.6555 30.0855C30.54 30.1215 30.423 30.1035 30.306 30.1035C23.8245 30.1035 17.343 30.1035 10.863 30.105C10.7475 30.105 10.629 30.0855 10.5135 30.1245H10.515Z" fill="black"/>
<path d="M10.515 30.1245C10.5795 30.0315 10.677 30.0765 10.758 30.0765C17.3625 30.0735 23.967 30.072 30.5715 30.072C30.6 30.072 30.6285 30.081 30.657 30.0855C30.561 30.1545 30.45 30.1335 30.345 30.1335C23.8335 30.1335 17.3205 30.1335 10.809 30.1335C10.7115 30.1335 10.614 30.1275 10.5165 30.1245H10.515Z" fill="#777777"/>
<path d="M10.4581 28.908C9.87906 28.851 9.36456 28.302 9.35706 27.6585C9.33906 26.163 9.35106 24.666 9.34656 23.169C9.34656 23.0415 9.41256 22.974 9.49506 22.902C11.5111 21.123 13.5271 19.3425 15.5446 17.5665C15.9511 17.2095 16.3861 17.244 16.7866 17.6565C19.4776 20.4285 22.1656 23.202 24.8581 25.9725C25.0381 26.157 25.2121 26.3865 25.5241 26.2995C26.0221 26.16 26.1571 25.65 25.7911 25.2585C25.4251 24.8655 25.0471 24.4815 24.6661 24.102C24.5506 23.9865 24.5326 23.928 24.6826 23.82C25.6426 23.13 26.5936 22.428 27.5536 21.7365C27.9316 21.465 28.2556 21.471 28.6306 21.7515C29.6491 22.512 30.6601 23.2815 31.6771 24.042C31.7926 24.1275 31.8271 24.222 31.8271 24.3615C31.8211 25.428 31.8286 26.493 31.8226 27.5595C31.8181 28.29 31.3561 28.8165 30.6571 28.9095C30.5521 28.944 30.4441 28.9275 30.3361 28.9275C23.8171 28.9275 17.2966 28.9275 10.7776 28.9275C10.6711 28.9275 10.5631 28.947 10.4581 28.908Z" fill="#00B7EC"/>
<path d="M30.5325 11.7555C30.708 11.799 30.897 11.817 31.0575 11.892C31.5915 12.141 31.8195 12.5955 31.821 13.1625C31.8255 16.311 31.821 19.4595 31.8195 22.6065C31.8195 22.614 31.8135 22.623 31.806 22.638C31.692 22.629 31.626 22.5375 31.545 22.476C30.834 21.9435 30.1095 21.4245 29.4195 20.865C28.6605 20.25 27.561 20.2305 26.784 20.832C25.842 21.561 24.858 22.236 23.9025 22.947C23.7315 23.073 23.649 23.058 23.5065 22.9095C21.552 20.883 19.587 18.8655 17.6295 16.842C17.049 16.242 16.356 16.035 15.5535 16.2285C15.2205 16.3095 14.946 16.5225 14.6895 16.749C12.99 18.2505 11.289 19.7505 9.58804 21.2505C9.52354 21.3075 9.45904 21.3615 9.39454 21.4155C9.31804 21.3645 9.34954 21.2985 9.34954 21.2475C9.34804 18.558 9.36604 15.87 9.33604 13.182C9.32704 12.456 9.90154 11.793 10.638 11.754C10.7325 11.7195 10.8315 11.736 10.929 11.736C17.367 11.736 23.805 11.736 30.2415 11.736C30.339 11.736 30.4365 11.7195 30.5325 11.754V11.7555Z" fill="#D6EFFB"/>
<path d="M19.6095 8.715C19.6425 9.0735 19.89 9.3015 20.253 9.3015C22.5855 9.3015 24.9195 9.3015 27.252 9.3045C27.4815 9.3045 27.723 9.312 27.9405 9.378C28.485 9.546 28.8675 9.897 29.0085 10.4715C29.016 10.536 28.9785 10.5555 28.923 10.5585C28.8345 10.5615 28.7475 10.56 28.659 10.56C22.7685 10.56 16.878 10.56 10.9875 10.56C10.872 10.56 10.7535 10.5405 10.6395 10.5795C10.044 10.653 9.47704 10.7895 9.02254 11.223C8.50354 11.718 8.17954 12.3015 8.17954 13.035C8.17804 17.397 8.17654 21.759 8.17654 26.1195C8.17654 26.3995 8.04354 26.494 7.77754 26.403C7.11154 26.1735 6.67354 25.6455 6.64054 25.032C6.60754 24.9465 6.62104 24.858 6.62104 24.771C6.62104 20.208 6.62104 15.6435 6.62104 11.0805C6.62104 10.9935 6.60754 10.905 6.63904 10.8195C6.67354 10.086 7.42354 9.4065 8.05954 9.345C8.72254 9.282 9.38254 9.3105 10.044 9.3045C11.7555 9.2925 13.467 9.294 15.177 9.3045C15.6315 9.3075 16.0125 9.252 16.104 8.712C16.4625 8.5425 16.836 8.6295 17.205 8.652C17.3235 8.691 17.337 8.808 17.3865 8.8995C17.4825 9.0825 17.6205 9.213 17.838 9.213C18.06 9.213 18.2235 9.1065 18.321 8.9025C18.366 8.808 18.3915 8.697 18.5055 8.6535C18.876 8.628 19.2495 8.541 19.611 8.7105L19.6095 8.715Z" fill="#FFD866"/>
<path d="M19.6095 8.715H18.453C18.378 8.6745 18.363 8.5905 18.321 8.5275C18.078 8.1495 17.6355 8.1495 17.3925 8.5275C17.3505 8.592 17.3355 8.6745 17.2605 8.715C16.875 8.715 16.4895 8.715 16.1025 8.715C15.9765 8.265 15.8115 8.1285 15.3615 8.1285C13.0275 8.127 10.6935 8.1195 8.3595 8.1315C6.8565 8.139 5.622 9.249 5.466 10.7055C5.4225 10.8195 5.445 10.938 5.445 11.0535C5.445 15.243 5.445 19.4325 5.442 23.622C5.442 23.736 5.4795 23.856 5.4075 23.964C4.6095 23.766 4.128 23.181 4.1265 22.3665C4.122 18.132 4.1085 13.8975 4.14 9.663C4.146 8.8935 4.551 8.2335 5.1165 7.6935C5.7435 7.095 6.4995 6.8385 7.35 6.8385C13.188 6.8355 19.0275 6.837 24.8655 6.8385C25.632 6.8385 26.2155 7.209 26.478 7.839C26.5665 8.052 26.559 8.1375 26.283 8.136C24.3075 8.1255 22.332 8.13 20.3565 8.13C19.9005 8.13 19.6455 8.334 19.608 8.7165L19.6095 8.715Z" fill="#EE4E71"/>
<path d="M10.458 28.908C10.644 28.905 10.8285 28.9005 11.0145 28.9005C17.5035 28.9005 23.994 28.9005 30.483 28.9005C30.5415 28.9005 30.6 28.908 30.657 28.911C30.552 28.9875 30.4305 28.9575 30.3165 28.9575C23.82 28.9575 17.325 28.9575 10.8285 28.9575C10.704 28.9575 10.5735 28.986 10.458 28.908Z" fill="#00617D"/>
<path d="M30.5325 11.7555C30.465 11.7585 30.396 11.7645 30.3285 11.7645C23.8335 11.7645 17.3385 11.7645 10.8435 11.7645C10.776 11.7645 10.707 11.7585 10.6395 11.7555C10.7325 11.673 10.845 11.7075 10.9485 11.7075C17.373 11.706 23.799 11.706 30.2235 11.7075C30.327 11.7075 30.4395 11.673 30.5325 11.7555Z" fill="#131617"/>
<path d="M10.6395 10.5825C10.752 10.4925 10.884 10.536 11.007 10.536C16.887 10.533 22.767 10.5345 28.647 10.5315C28.7685 10.5315 28.9035 10.581 29.0085 10.473C29.0355 10.5135 29.0745 10.5645 28.998 10.5825C28.9335 10.599 28.8615 10.5915 28.794 10.5915C22.8015 10.5915 16.8075 10.5915 10.815 10.5915C10.7565 10.5915 10.698 10.5855 10.6395 10.5825Z" fill="#E7C45C"/>
<path d="M6.63751 10.8195C6.64051 10.9755 6.64801 11.1315 6.64801 11.2875C6.64801 15.831 6.65101 20.3745 6.65101 24.9165C6.65101 24.9555 6.64351 24.9945 6.64051 25.032C6.56551 24.927 6.59101 24.8055 6.59101 24.6915C6.59101 20.181 6.59101 15.6705 6.59101 11.1585C6.59101 11.0445 6.55951 10.923 6.63751 10.818V10.8195Z" fill="#7F6C33"/>
<path d="M5.40747 23.9625C5.41047 23.337 5.41497 22.713 5.41497 22.0875C5.41497 18.465 5.41497 14.8425 5.41797 11.22C5.41797 11.0475 5.37747 10.869 5.46747 10.704C5.47047 10.9095 5.47497 11.1135 5.47497 11.319C5.47497 15.426 5.47497 19.5345 5.47197 23.6415C5.47197 23.748 5.53197 23.877 5.40747 23.9625Z" fill="#772738"/>
<path d="M23.25 16.6035C23.181 15.4455 24.3675 14.049 25.8645 14.169C27.288 14.283 28.257 15.2715 28.239 16.6995C28.2195 18.207 27.027 19.1625 25.683 19.1715C24.4335 19.179 23.145 17.937 23.2485 16.6035H23.25Z" fill="black"/>
<path d="M17.2605 8.715C17.3475 8.319 17.481 8.187 17.796 8.1855C18.237 8.1825 18.345 8.271 18.4515 8.715C18.4125 9.0285 18.2475 9.2355 17.9325 9.297C17.6565 9.351 17.481 9.198 17.328 8.9895C17.2605 8.898 17.2905 8.8035 17.2605 8.715Z" fill="#010000"/>
<path d="M24.4216 16.6485C24.3841 15.9735 25.0306 15.3105 25.7656 15.33C26.4961 15.348 27.0901 15.9285 27.0781 16.6575C27.0631 17.5275 26.3836 17.979 25.7551 17.997C25.0036 18.018 24.3601 17.2935 24.4216 16.6485Z" fill="#FFD866"/>
</svg>
