<svg width="30" height="30" viewBox="0 0 30 30" fill="none" xmlns="http://www.w3.org/2000/svg">
<path d="M26.25 25C26.25 25.3315 26.1183 25.6495 25.8839 25.8839C25.6495 26.1183 25.3315 26.25 25 26.25H5C4.66848 26.25 4.35054 26.1183 4.11612 25.8839C3.8817 25.6495 3.75 25.3315 3.75 25V11.8613C3.74987 11.6708 3.79327 11.4828 3.8769 11.3116C3.96052 11.1405 4.08215 10.9907 4.2325 10.8738L14.2325 3.09625C14.4519 2.92556 14.722 2.83289 15 2.83289C15.278 2.83289 15.5481 2.92556 15.7675 3.09625L25.7675 10.8738C25.9179 10.9907 26.0395 11.1405 26.1231 11.3116C26.2067 11.4828 26.2501 11.6708 26.25 11.8613V25ZM23.75 23.75V12.4725L15 5.66625L6.25 12.4725V23.75H23.75Z" fill="#79A33D"/>
</svg>
