<svg width="35" height="35" viewBox="0 0 35 35" fill="none" xmlns="http://www.w3.org/2000/svg">
<path d="M13.125 7.29165V7.84581C11.9146 7.36456 10.6167 7.11665 9.31875 7.11665C7.24792 7.11665 5.17708 7.74373 3.4125 8.9979C2.66875 9.5229 2.58125 10.5875 3.22292 11.2291L6.97083 14.9771H8.58958V16.5958C9.84375 17.85 11.4771 18.5062 13.125 18.5791V21.875H10.2083C9.40625 21.875 8.75 22.5312 8.75 23.3333V26.25C8.75 27.8541 10.0625 29.1666 11.6667 29.1666H26.25C28.6708 29.1666 30.625 27.2125 30.625 24.7916V7.29165C30.625 6.48956 29.9688 5.83331 29.1667 5.83331H14.5833C13.7812 5.83331 13.125 6.48956 13.125 7.29165ZM11.5063 15.1812V12.0458H8.18125L6.66458 10.5291C7.51137 10.2024 8.41109 10.0343 9.31875 10.0333C11.2729 10.0333 13.0958 10.7916 14.4813 12.1625L16.5375 14.2187L16.2458 14.5104C15.8794 14.8803 15.4433 15.1739 14.9627 15.3742C14.4821 15.5744 13.9665 15.6774 13.4458 15.6771C12.7604 15.6771 12.0896 15.5021 11.5063 15.1812ZM27.7083 24.7916C27.7083 25.5937 27.0521 26.25 26.25 26.25C25.4479 26.25 24.7917 25.5937 24.7917 24.7916V23.3333C24.7917 22.5312 24.1354 21.875 23.3333 21.875H16.0417V18.0979C16.8729 17.7625 17.6458 17.2666 18.3167 16.5958L18.6083 16.3041L22.7354 20.4166H24.7917V18.3604L16.0417 9.65415V8.74998H27.7083V24.7916Z" fill="#79A33D"/>
</svg>
