<svg width="37" height="38" viewBox="0 0 37 38" fill="none" xmlns="http://www.w3.org/2000/svg">
<g filter="url(#filter0_dd_1_341)">
<path d="M15.125 7.29168V7.84584C13.9146 7.36459 12.6166 7.11668 11.3187 7.11668C9.24789 7.11668 7.17706 7.74376 5.41248 8.99793C4.66873 9.52293 4.58123 10.5875 5.22289 11.2292L8.97081 14.9771H10.5896V16.5958C11.8437 17.85 13.4771 18.5063 15.125 18.5792V21.875H12.2083C11.4062 21.875 10.75 22.5313 10.75 23.3333V26.25C10.75 27.8542 12.0625 29.1667 13.6666 29.1667H28.25C30.6708 29.1667 32.625 27.2125 32.625 24.7917V7.29168C32.625 6.48959 31.9687 5.83334 31.1666 5.83334H16.5833C15.7812 5.83334 15.125 6.48959 15.125 7.29168ZM13.5062 15.1813V12.0458H10.1812L8.66456 10.5292C9.51135 10.2024 10.4111 10.0343 11.3187 10.0333C13.2729 10.0333 15.0958 10.7917 16.4812 12.1625L18.5375 14.2188L18.2458 14.5104C17.8794 14.8804 17.4433 15.174 16.9627 15.3742C16.482 15.5745 15.9665 15.6774 15.4458 15.6771C14.7604 15.6771 14.0896 15.5021 13.5062 15.1813ZM29.7083 24.7917C29.7083 25.5938 29.0521 26.25 28.25 26.25C27.4479 26.25 26.7916 25.5938 26.7916 24.7917V23.3333C26.7916 22.5313 26.1354 21.875 25.3333 21.875H18.0416V18.0979C18.8729 17.7625 19.6458 17.2667 20.3166 16.5958L20.6083 16.3042L24.7354 20.4167H26.7916V18.3604L18.0416 9.65418V8.75001H29.7083V24.7917Z" fill="#F1AC18"/>
</g>
<defs>
<filter id="filter0_dd_1_341" x="-2" y="0" width="43" height="43" filterUnits="userSpaceOnUse" color-interpolation-filters="sRGB">
<feFlood flood-opacity="0" result="BackgroundImageFix"/>
<feColorMatrix in="SourceAlpha" type="matrix" values="0 0 0 0 0 0 0 0 0 0 0 0 0 0 0 0 0 0 127 0" result="hardAlpha"/>
<feOffset dy="4"/>
<feGaussianBlur stdDeviation="2"/>
<feComposite in2="hardAlpha" operator="out"/>
<feColorMatrix type="matrix" values="0 0 0 0 0 0 0 0 0 0 0 0 0 0 0 0 0 0 0.25 0"/>
<feBlend mode="normal" in2="BackgroundImageFix" result="effect1_dropShadow_1_341"/>
<feColorMatrix in="SourceAlpha" type="matrix" values="0 0 0 0 0 0 0 0 0 0 0 0 0 0 0 0 0 0 127 0" result="hardAlpha"/>
<feOffset dy="4"/>
<feGaussianBlur stdDeviation="2"/>
<feComposite in2="hardAlpha" operator="out"/>
<feColorMatrix type="matrix" values="0 0 0 0 0 0 0 0 0 0 0 0 0 0 0 0 0 0 0.25 0"/>
<feBlend mode="normal" in2="effect1_dropShadow_1_341" result="effect2_dropShadow_1_341"/>
<feBlend mode="normal" in="SourceGraphic" in2="effect2_dropShadow_1_341" result="shape"/>
</filter>
</defs>
</svg>
